# xmcd
# 
# Track frame offsets:
#     150
#     19560
#     30618
#     44583
#     60568
#     78752
#     101467
#     116796
#     135414
#     154379
# 
# Disc length: 2260
# 
# Revision: 4
# Processed by: cddbd v1.5.2PL0 Copyright (c) Steve Scherf et al.
# Submitted via: fre:ac v1.0.17
# 
DISCID=7708d20a
DTITLE=Sugarland - Gold And Green
DYEAR=2009
DGENRE=Country
TTITLE0=01City Of Silver Dreams
TTITLE1=02Winter Wonderland
TTITLE2=03Holly Jolly Christmas
TTITLE3=04Coming Home
TTITLE4=05Gold And Green
TTITLE5=06Maybe Baby (New Year's Day)
TTITLE6=07Nuttin' For Christmas
TTITLE7=08O Come, O Come, Emmanuel
TTITLE8=09Little Wood Guitar
TTITLE9=10Silent Night
EXTD=YEAR: 2009
EXTT0=
EXTT1=
EXTT2=
EXTT3=
EXTT4=
EXTT5=
EXTT6=
EXTT7=
EXTT8=
EXTT9=
PLAYORDER=
